<svg width="519" height="363" viewBox="0 0 519 363" fill="none" xmlns="http://www.w3.org/2000/svg">
<path d="M493.785 291.844H72.9585V17.4435C72.9585 11.2561 67.9429 6.24048 61.7606 6.24048C55.5732 6.24048 50.5576 11.2561 50.5576 17.4435V291.844H11.4323C5.24998 291.844 0.234375 296.854 0.234375 303.041C0.234375 309.229 5.24998 314.239 11.4323 314.239H50.5576V351.573C50.5576 357.76 55.5732 362.776 61.7606 362.776C67.9429 362.776 72.9585 357.76 72.9585 351.573V314.239H493.785C499.967 314.239 504.983 309.229 504.983 303.041C504.983 296.854 499.967 291.844 493.785 291.844Z" fill="black"/>
<path d="M514.238 2.05683C511.806 0.327626 508.79 -0.349451 505.858 0.171349C502.92 0.692175 500.322 2.36402 498.634 4.81722L385.363 166.324L329.962 130.485C325.332 127.501 319.222 128.324 315.55 132.423L251.633 204.251L200.638 159.448V159.453C196.398 155.615 189.94 155.615 185.701 159.453L81.17 249.052C76.4669 253.073 75.9148 260.146 79.9356 264.844C83.9564 269.547 91.0293 270.099 95.7276 266.078L192.796 182.901L245.061 228.598V228.593C247.28 230.562 250.186 231.567 253.144 231.385C256.103 231.202 258.863 229.848 260.816 227.624L325.701 154.75L382.076 191.338V191.333C387.076 194.359 393.561 193.062 397.008 188.348L516.477 17.5881V17.5829C520.087 12.661 519.092 5.75536 514.238 2.05683Z" fill="black"/>
</svg>
