<svg width="712" height="711" viewBox="0 0 712 711" fill="none" xmlns="http://www.w3.org/2000/svg">
<path d="M227.944 503.253H483.304C494.502 503.253 504.211 494.295 504.211 482.347L504.216 226.987C504.216 215.789 495.258 206.08 483.31 206.08H227.95C216.752 206.08 207.043 215.038 207.043 226.987V482.347C207.043 493.55 216.751 503.259 227.95 503.259L227.944 503.253ZM248.856 247.893H462.403V461.44L248.856 461.435V247.893Z" fill="black"/>
<path d="M689.384 324.053C700.582 324.053 710.291 315.095 710.291 303.147C710.291 291.198 701.333 282.24 689.384 282.24H600.53V220.267H689.384C700.582 220.267 710.291 211.308 710.291 199.36C710.291 188.162 701.333 178.453 689.384 178.453H600.53V129.923C600.53 118.725 591.571 109.016 579.623 109.016H531.092V20.9067C531.092 9.7088 522.134 0 510.186 0C498.988 0 489.279 8.9584 489.279 20.9067V109.761H427.306V20.9067C427.306 9.7088 418.347 0 406.399 0C395.201 0 385.492 8.9584 385.492 20.9067V109.761H323.519V20.9067C323.519 9.7088 314.561 0 302.612 0C290.665 0 281.706 8.9584 281.706 20.9067V109.761H221.222V20.9067C221.222 9.7088 212.263 0 200.315 0C189.117 0 179.408 8.9584 179.408 20.9067V109.761H130.878C119.68 109.761 109.971 118.72 109.971 130.668V179.199H21.8617C10.6639 179.199 0.955078 188.157 0.955078 200.105C0.955078 211.303 9.91348 221.012 21.8617 221.012H110.716V282.985H21.8617C10.6639 282.985 0.955078 291.944 0.955078 303.892C0.955078 315.84 9.91348 324.799 21.8617 324.799H110.716V386.772H21.8617C10.6639 386.772 0.955078 395.73 0.955078 407.679C0.955078 419.627 9.91348 428.585 21.8617 428.585H110.716V489.069H21.8617C10.6639 489.069 0.955078 498.028 0.955078 509.976C0.955078 521.174 9.91348 530.883 21.8617 530.883H110.716V579.413C110.716 590.611 119.675 600.32 131.623 600.32H180.154V689.175C180.154 700.373 189.112 710.081 201.06 710.081C212.258 710.081 221.967 701.123 221.967 689.175L221.972 599.576H283.946V688.431C283.946 699.629 292.904 709.337 304.852 709.337C316.801 709.337 325.759 700.379 325.759 688.431V599.576H387.732V688.431C387.732 699.629 396.691 709.337 408.639 709.337C419.837 709.337 429.546 700.379 429.546 688.431V599.576H490.024V688.431C490.024 699.629 498.983 709.337 510.931 709.337C522.129 709.337 531.838 700.379 531.838 688.431V599.576H580.368C591.566 599.576 601.275 590.618 601.275 578.669V530.139H690.13C701.328 530.139 711.036 521.18 711.036 509.232C711.036 498.034 702.078 488.325 690.13 488.325L600.531 488.32V426.347H689.386C700.584 426.347 710.292 417.388 710.292 405.44C710.292 393.492 701.334 384.533 689.386 384.533H600.531V322.56L689.386 322.565L689.384 324.053ZM559.463 558.507H151.783V150.827H559.463V558.507Z" fill="black"/>
</svg>
