<svg width="673" height="672" viewBox="0 0 673 672" fill="none" xmlns="http://www.w3.org/2000/svg">
<path d="M336.625 672C521.892 672 672.625 521.267 672.625 336C672.625 150.733 521.892 0 336.625 0C151.358 0 0.625 150.733 0.625 336C0.625 521.267 151.358 672 336.625 672ZM336.625 35.3733C502.385 35.3733 637.252 170.24 637.252 336C637.252 501.76 502.385 636.627 336.625 636.627C170.865 636.627 35.9983 501.76 35.9983 336C35.9983 170.24 170.865 35.3733 336.625 35.3733Z" fill="black"/>
<path d="M336.625 266.413C324.901 266.413 315.406 275.913 315.406 287.643V495.163C315.406 506.887 324.896 516.392 336.625 516.392C348.354 516.392 357.844 506.892 357.844 495.163V287.629C357.844 275.905 348.349 266.411 336.625 266.411V266.413Z" fill="black"/>
<path d="M336.625 232.187C351.917 232.187 364.297 219.786 364.297 204.525C364.297 189.213 351.917 176.853 336.625 176.853C321.333 176.853 308.953 189.213 308.953 204.525C308.953 219.785 321.333 232.187 336.625 232.187Z" fill="black"/>
</svg>
